<?xml version="1.0" encoding="utf-8"?>
<!-- Generator: Adobe Illustrator 21.1.0, SVG Export Plug-In . SVG Version: 6.00 Build 0)  -->
<svg version="1.1" xmlns="http://www.w3.org/2000/svg" xmlns:xlink="http://www.w3.org/1999/xlink" x="0px" y="0px"
	 viewBox="0 0 1280 720" style="enable-background:new 0 0 1280 720;" xml:space="preserve">
<style type="text/css">
	.st0{fill:#FFFFFF;}
	.st1{font-family:'OpenSans-ExtraboldItalic';}
	.st2{font-size:64.7079px;}
</style>
<g id="Camada_1">
	<g>
		<g>
			<path class="st0" d="M167.4,235.8v106.1h-13.8V116.2h13.8v106.1h65.4V116.2H247v225.8h-14.1V235.8H167.4z"/>
			<path class="st0" d="M298.6,291.9l-10.5,50h-12.6l45.9-226.1h20.1l46.8,226.1h-13.8l-10.5-50H298.6z M300.7,279h61.2L331,132.9
				L300.7,279z"/>
			<path class="st0" d="M460.4,116.2c32.4,0,45,21.9,45,54.8v24.5c0,35.8-15.3,53.5-48.6,53.5h-26.1v92.9h-13.8V116.2H460.4z
				 M456.8,235.5c24.3,0,34.8-11.6,34.8-39V170c0-24.5-7.8-40.3-31.2-40.3h-29.7v105.8H456.8z"/>
			<path class="st0" d="M577.1,116.2c32.4,0,45,21.9,45,54.8v24.5c0,35.8-15.3,53.5-48.6,53.5h-26.1v92.9h-13.8V116.2H577.1z
				 M573.5,235.5c24.3,0,34.8-11.6,34.8-39V170c0-24.5-7.8-40.3-31.2-40.3h-29.7v105.8H573.5z"/>
			<path class="st0" d="M693,255.2l-47.1-139h14.4l40.2,118.7l40.2-118.7h13.5l-47.4,139v86.8H693V255.2z"/>
			<path class="st0" d="M781.8,116.2H834c33,0,49.2,19.7,49.2,55.8v114.2c0,36.1-16.2,55.8-49.2,55.8h-52.2V116.2z M814.8,148.4
				v161.3h18.6c10.5,0,16.8-5.8,16.8-21.9V170.3c0-16.1-6.3-21.9-16.8-21.9H814.8z"/>
			<path class="st0" d="M909.1,170.3c0-36.1,17.7-56.8,50.1-56.8c32.4,0,50.1,20.6,50.1,56.8v117.4c0,36.1-17.7,56.8-50.1,56.8
				c-32.4,0-50.1-20.6-50.1-56.8V170.3z M942.1,290c0,16.1,6.6,22.3,17.1,22.3c10.5,0,17.1-6.1,17.1-22.3V168.1
				c0-16.1-6.6-22.3-17.1-22.3c-10.5,0-17.1,6.1-17.1,22.3V290z"/>
			<path class="st0" d="M1087.6,216.1h46.2v71.6c0,36.1-16.8,56.8-49.2,56.8s-49.2-20.6-49.2-56.8V170.3c0-36.1,16.8-56.8,49.2-56.8
				s49.2,20.6,49.2,56.8v21.9h-31.2v-24.2c0-16.1-6.6-22.3-17.1-22.3c-10.5,0-17.1,6.1-17.1,22.3V290c0,16.1,6.6,21.9,17.1,21.9
				c10.5,0,17.1-5.8,17.1-21.9v-41.6h-15V216.1z"/>
		</g>
		<g>
			<path class="st0" d="M1261,435.5H31.3V35.5H1261V435.5z M33.5,433.1h1225.3V37.9H33.5V433.1z"/>
		</g>
		<g>
			<path class="st0" d="M1247.7,421.9H18V22h1229.7V421.9z M20.2,419.6h1225.3V24.4H20.2V419.6z"/>
		</g>
	</g>
	<text transform="matrix(0.9306 0 0 1 18 537.001)" class="st0 st1 st2">DEIXE O MUNDO DAS CORES ATINGIR VOCÊ</text>
</g>
<g id="Camada_2">
</g>
</svg>
